<?xml version="1.0" encoding="utf-8" standalone="no"?>
<!DOCTYPE svg PUBLIC "-//W3C//DTD SVG 1.1//EN" "http://www.w3.org/Graphics/SVG/1.1/DTD/svg11.dtd">

<svg style="stroke-linejoin:round; stroke:black; stroke-width:0.5pt; text-anchor:middle; fill:none" xmlns="http://www.w3.org/2000/svg" height="400mm" width="400mm" version="1.1" xmlns:xlink="http://www.w3.org/1999/xlink" font-family="Helvetica, Arial, FreeSans, Sans, sans, sans-serif" viewBox="0 0 400 400">

<g>

<circle stroke="black" cx="25.0" r="5.0" cy="375.0" fill="none" />

<circle stroke="black" cx="75.0" r="5.0" cy="375.0" fill="none" />

<circle stroke="black" cx="125.0" r="5.0" cy="375.0" fill="none" />

<circle stroke="black" cx="175.0" r="5.0" cy="375.0" fill="none" />

<circle stroke="black" cx="225.0" r="5.0" cy="375.0" fill="none" />

<circle stroke="black" cx="275.0" r="5.0" cy="375.0" fill="none" />

<circle stroke="black" cx="325.0" r="5.0" cy="375.0" fill="none" />

<circle stroke="black" cx="50.0" r="5.0" cy="350.0" fill="none" />

<circle stroke="black" cx="100.0" r="5.0" cy="350.0" fill="none" />

<circle stroke="black" cx="150.0" r="5.0" cy="350.0" fill="none" />

<circle stroke="black" cx="200.0" r="5.0" cy="350.0" fill="none" />

<circle stroke="black" cx="250.0" r="5.0" cy="350.0" fill="none" />

<circle stroke="black" cx="300.0" r="5.0" cy="350.0" fill="none" />

<circle stroke="black" cx="350.0" r="5.0" cy="350.0" fill="none" />

<circle stroke="black" cx="25.0" r="5.0" cy="325.0" fill="none" />

<circle stroke="black" cx="75.0" r="5.0" cy="325.0" fill="none" />

<circle stroke="black" cx="125.0" r="5.0" cy="325.0" fill="none" />

<circle stroke="black" cx="175.0" r="5.0" cy="325.0" fill="none" />

<circle stroke="black" cx="225.0" r="5.0" cy="325.0" fill="none" />

<circle stroke="black" cx="275.0" r="5.0" cy="325.0" fill="none" />

<circle stroke="black" cx="325.0" r="5.0" cy="325.0" fill="none" />

<circle stroke="black" cx="50.0" r="5.0" cy="300.0" fill="none" />

<circle stroke="black" cx="100.0" r="5.0" cy="300.0" fill="none" />

<circle stroke="black" cx="150.0" r="5.0" cy="300.0" fill="none" />

<circle stroke="black" cx="200.0" r="5.0" cy="300.0" fill="none" />

<circle stroke="black" cx="250.0" r="5.0" cy="300.0" fill="none" />

<circle stroke="black" cx="300.0" r="5.0" cy="300.0" fill="none" />

<circle stroke="black" cx="350.0" r="5.0" cy="300.0" fill="none" />

<circle stroke="black" cx="25.0" r="5.0" cy="275.0" fill="none" />

<circle stroke="black" cx="75.0" r="5.0" cy="275.0" fill="none" />

<circle stroke="black" cx="125.0" r="5.0" cy="275.0" fill="none" />

<circle stroke="black" cx="175.0" r="5.0" cy="275.0" fill="none" />

<circle stroke="black" cx="225.0" r="5.0" cy="275.0" fill="none" />

<circle stroke="black" cx="275.0" r="5.0" cy="275.0" fill="none" />

<circle stroke="black" cx="325.0" r="5.0" cy="275.0" fill="none" />

<circle stroke="black" cx="50.0" r="5.0" cy="250.0" fill="none" />

<circle stroke="black" cx="100.0" r="5.0" cy="250.0" fill="none" />

<circle stroke="black" cx="150.0" r="5.0" cy="250.0" fill="none" />

<circle stroke="black" cx="200.0" r="5.0" cy="250.0" fill="none" />

<circle stroke="black" cx="250.0" r="5.0" cy="250.0" fill="none" />

<circle stroke="black" cx="300.0" r="5.0" cy="250.0" fill="none" />

<circle stroke="black" cx="350.0" r="5.0" cy="250.0" fill="none" />

<circle stroke="black" cx="25.0" r="5.0" cy="225.0" fill="none" />

<circle stroke="black" cx="75.0" r="5.0" cy="225.0" fill="none" />

<circle stroke="black" cx="125.0" r="5.0" cy="225.0" fill="none" />

<circle stroke="black" cx="175.0" r="5.0" cy="225.0" fill="none" />

<circle stroke="black" cx="225.0" r="5.0" cy="225.0" fill="none" />

<circle stroke="black" cx="275.0" r="5.0" cy="225.0" fill="none" />

<circle stroke="black" cx="325.0" r="5.0" cy="225.0" fill="none" />

<circle stroke="black" cx="50.0" r="5.0" cy="200.0" fill="none" />

<circle stroke="black" cx="100.0" r="5.0" cy="200.0" fill="none" />

<circle stroke="black" cx="150.0" r="5.0" cy="200.0" fill="none" />

<circle stroke="black" cx="200.0" r="5.0" cy="200.0" fill="none" />

<circle stroke="black" cx="250.0" r="5.0" cy="200.0" fill="none" />

<circle stroke="black" cx="300.0" r="5.0" cy="200.0" fill="none" />

<circle stroke="black" cx="350.0" r="5.0" cy="200.0" fill="none" />

<circle stroke="black" cx="25.0" r="5.0" cy="175.0" fill="none" />

<circle stroke="black" cx="75.0" r="5.0" cy="175.0" fill="none" />

<circle stroke="black" cx="125.0" r="5.0" cy="175.0" fill="none" />

<circle stroke="black" cx="175.0" r="5.0" cy="175.0" fill="none" />

<circle stroke="black" cx="225.0" r="5.0" cy="175.0" fill="none" />

<circle stroke="black" cx="275.0" r="5.0" cy="175.0" fill="none" />

<circle stroke="black" cx="325.0" r="5.0" cy="175.0" fill="none" />

<circle stroke="black" cx="50.0" r="5.0" cy="150.0" fill="none" />

<circle stroke="black" cx="100.0" r="5.0" cy="150.0" fill="none" />

<circle stroke="black" cx="150.0" r="5.0" cy="150.0" fill="none" />

<circle stroke="black" cx="200.0" r="5.0" cy="150.0" fill="none" />

<circle stroke="black" cx="250.0" r="5.0" cy="150.0" fill="none" />

<circle stroke="black" cx="300.0" r="5.0" cy="150.0" fill="none" />

<circle stroke="black" cx="350.0" r="5.0" cy="150.0" fill="none" />

<circle stroke="black" cx="25.0" r="5.0" cy="125.0" fill="none" />

<circle stroke="black" cx="75.0" r="5.0" cy="125.0" fill="none" />

<circle stroke="black" cx="125.0" r="5.0" cy="125.0" fill="none" />

<circle stroke="black" cx="175.0" r="5.0" cy="125.0" fill="none" />

<circle stroke="black" cx="225.0" r="5.0" cy="125.0" fill="none" />

<circle stroke="black" cx="275.0" r="5.0" cy="125.0" fill="none" />

<circle stroke="black" cx="325.0" r="5.0" cy="125.0" fill="none" />

</g>

</svg>

