<?xml version="1.0" encoding="utf-8" standalone="no"?>
<!DOCTYPE svg PUBLIC "-//W3C//DTD SVG 1.1//EN" "http://www.w3.org/Graphics/SVG/1.1/DTD/svg11.dtd">

<svg style="stroke-linejoin:round; stroke:black; stroke-width:0.5pt; text-anchor:middle; fill:none" xmlns="http://www.w3.org/2000/svg" height="400mm" width="600mm" version="1.1" xmlns:xlink="http://www.w3.org/1999/xlink" font-family="Helvetica, Arial, FreeSans, Sans, sans, sans-serif" viewBox="0 0 600 400">

<g>

<circle stroke="black" cx="44.0" r="20.0" cy="356.0" fill="none" />

<circle stroke="black" cx="132.0" r="20.0" cy="356.0" fill="none" />

<circle stroke="black" cx="220.0" r="20.0" cy="356.0" fill="none" />

<circle stroke="black" cx="308.0" r="20.0" cy="356.0" fill="none" />

<circle stroke="black" cx="396.0" r="20.0" cy="356.0" fill="none" />

<circle stroke="black" cx="88.0" r="20.0" cy="312.0" fill="none" />

<circle stroke="black" cx="176.0" r="20.0" cy="312.0" fill="none" />

<circle stroke="black" cx="264.0" r="20.0" cy="312.0" fill="none" />

<circle stroke="black" cx="352.0" r="20.0" cy="312.0" fill="none" />

<circle stroke="black" cx="440.0" r="20.0" cy="312.0" fill="none" />

<circle stroke="black" cx="44.0" r="20.0" cy="268.0" fill="none" />

<circle stroke="black" cx="132.0" r="20.0" cy="268.0" fill="none" />

<circle stroke="black" cx="220.0" r="20.0" cy="268.0" fill="none" />

<circle stroke="black" cx="308.0" r="20.0" cy="268.0" fill="none" />

<circle stroke="black" cx="396.0" r="20.0" cy="268.0" fill="none" />

<circle stroke="black" cx="88.0" r="20.0" cy="224.0" fill="none" />

<circle stroke="black" cx="176.0" r="20.0" cy="224.0" fill="none" />

<circle stroke="black" cx="264.0" r="20.0" cy="224.0" fill="none" />

<circle stroke="black" cx="352.0" r="20.0" cy="224.0" fill="none" />

<circle stroke="black" cx="440.0" r="20.0" cy="224.0" fill="none" />

<circle stroke="black" cx="44.0" r="20.0" cy="180.0" fill="none" />

<circle stroke="black" cx="132.0" r="20.0" cy="180.0" fill="none" />

<circle stroke="black" cx="220.0" r="20.0" cy="180.0" fill="none" />

<circle stroke="black" cx="308.0" r="20.0" cy="180.0" fill="none" />

<circle stroke="black" cx="396.0" r="20.0" cy="180.0" fill="none" />

<circle stroke="black" cx="88.0" r="20.0" cy="136.0" fill="none" />

<circle stroke="black" cx="176.0" r="20.0" cy="136.0" fill="none" />

<circle stroke="black" cx="264.0" r="20.0" cy="136.0" fill="none" />

<circle stroke="black" cx="352.0" r="20.0" cy="136.0" fill="none" />

<circle stroke="black" cx="440.0" r="20.0" cy="136.0" fill="none" />

<circle stroke="black" cx="44.0" r="20.0" cy="92.0" fill="none" />

<circle stroke="black" cx="132.0" r="20.0" cy="92.0" fill="none" />

<circle stroke="black" cx="220.0" r="20.0" cy="92.0" fill="none" />

<circle stroke="black" cx="308.0" r="20.0" cy="92.0" fill="none" />

<circle stroke="black" cx="396.0" r="20.0" cy="92.0" fill="none" />

<circle stroke="black" cx="88.0" r="20.0" cy="48.0" fill="none" />

<circle stroke="black" cx="176.0" r="20.0" cy="48.0" fill="none" />

<circle stroke="black" cx="264.0" r="20.0" cy="48.0" fill="none" />

<circle stroke="black" cx="352.0" r="20.0" cy="48.0" fill="none" />

<circle stroke="black" cx="440.0" r="20.0" cy="48.0" fill="none" />

</g>

</svg>

